<svg xmlns="http://www.w3.org/2000/svg" width="512" height="512" viewBox="0 0 512 512"><path fill="none" stroke="#3D3D3D" stroke-width="12" stroke-miterlimit="10" d="M313 415.5l149.191-230.388"/><path fill="#3D3D3D" d="M494.758 222.887l4.88-95.602-85.24 43.564z"/><path fill="none" stroke="#3D3D3D" stroke-width="12" stroke-miterlimit="10" d="M62 107.5l130.714 172.72"/><path fill="#3D3D3D" d="M146.092 297.938l88.196 37.215-11.856-94.989z"/><path fill="#FFF" stroke="#26C6DA" stroke-width="12" stroke-miterlimit="10" d="M245 163.005c0 10.49-8.504 18.995-18.994 18.995h-328.012c-10.49 0-18.994-8.504-18.994-18.995V51.995C-121 41.504-112.496 33-102.006 33h328.012C236.496 33 245 41.504 245 51.995v111.01z"/><path fill="#FFF" stroke="#FFA726" stroke-width="12" stroke-miterlimit="10" d="M496 471.006c0 10.49-8.504 18.994-18.994 18.994H148.994c-10.49 0-18.994-8.504-18.994-18.994V359.994c0-10.49 8.504-18.994 18.994-18.994h328.012c10.49 0 18.994 8.504 18.994 18.994v111.012z"/><path opacity=".8" fill="#FFF" stroke="#26C6DA" stroke-width="12" stroke-miterlimit="10" d="M736 103.006c0 10.49-8.504 18.994-18.994 18.994H388.994c-10.49 0-18.994-8.504-18.994-18.994V-8.005C370-18.496 378.504-27 388.994-27h328.012C727.496-27 736-18.496 736-8.005v111.011z"/></svg>